<svg width="24" height="25" viewBox="0 0 24 25" fill="none" xmlns="http://www.w3.org/2000/svg">
<path d="M14.2618 4.09937C13.1956 3.03312 12.6625 2.5 12 2.5C11.3375 2.5 10.8044 3.03312 9.73815 4.09937C9.09832 4.7392 8.46427 5.03626 7.55208 5.03626C6.7556 5.03626 5.62243 4.88178 5 5.50944C4.38249 6.13214 4.53628 7.26065 4.53628 8.05206C4.53628 8.96428 4.2392 9.59832 3.59935 10.2382C2.53312 11.3044 2.00001 11.8375 2 12.5C2.00002 13.1624 2.53314 13.6956 3.59938 14.7618C4.31616 15.4786 4.53628 15.9414 4.53628 16.9479C4.53628 17.7444 4.38181 18.8776 5.00949 19.5C5.63218 20.1175 6.76068 19.9637 7.55206 19.9637C8.52349 19.9637 8.99128 20.1537 9.68457 20.847C10.2749 21.4374 11.0663 22.5 12 22.5C12.9337 22.5 13.7251 21.4374 14.3154 20.847C15.0087 20.1537 15.4765 19.9637 16.4479 19.9637C17.2393 19.9637 18.3678 20.1175 18.9905 19.5M18.9905 19.5C19.6182 18.8776 19.4637 17.7444 19.4637 16.9479C19.4637 15.9414 19.6838 15.4786 20.4006 14.7618C21.4669 13.6956 22 13.1624 22 12.5C22 11.8375 21.4669 11.3044 20.4006 10.2382M18.9905 19.5H19" stroke="#00A424" stroke-width="1.5" stroke-linecap="round" stroke-linejoin="round"/>
<path d="M8 10.8077C8 10.8077 10.25 10.5 12 14.5C12 14.5 17.0588 4.5 22 2.5" stroke="#00A424" stroke-width="1.5" stroke-linecap="round" stroke-linejoin="round"/>
</svg>
